<svg xmlns="http://www.w3.org/2000/svg" xml:space="preserve" style="fill-rule:evenodd;clip-rule:evenodd;stroke-linejoin:round;stroke-miterlimit:2" viewBox="0 0 128 40">
  <path d="M0 71.298V54.211L71.437 22.29v20.04L22.64 62.296v.984l48.797 19.97v19.897zM136.054 0l-33.75 125.438h-18.07L117.984 0z" style="fill:#ffffff;fill-rule:nonzero" transform="translate(1 10)scale(.15944)"/>
    <path d="M142.382 114.188v-74.25h27v14.554q3.094-8.437 9.317-12.34 6.222-3.902 13.605-3.902t13.325 3.832q5.94 3.833 8.191 11.637 2.813-7.734 9.492-11.602 6.68-3.867 14.555-3.867 11.18 0 18.176 7.172t6.996 19.125v49.641h-28.125v-42.61q0-5.063-2.602-8.015-2.602-2.954-6.961-2.954-4.218 0-6.75 2.954-2.53 2.952-2.531 8.015v42.61h-26.719v-42.61q0-5.063-2.566-8.015-2.567-2.954-6.926-2.954-4.289 0-6.82 2.954-2.532 2.952-2.532 8.015v42.61z" style="fill:#ffffff" transform="translate(1 10)scale(.15944)"/>
    <path d="M297.914 115.523q-11.18 0-18.246-5.414-7.067-5.413-7.067-16.453 0-8.296 3.797-13.324 3.796-5.027 10.266-7.488 6.468-2.461 14.484-2.953 9.844-.633 13.922-2.039t4.078-4.43v-.281q0-2.462-2.285-3.903t-6.152-1.441q-8.508 0-9.282 6.75h-25.734q.913-12.657 9.984-19.477t26.157-6.82q17.226 0 26.191 6.82t8.965 19.477v49.641H319.57v-10.407h-.281q-3.657 6.61-8.965 9.176-5.309 2.566-12.41 2.566m9.14-17.507q4.57 0 8.473-2.602 3.902-2.601 3.902-7.523v-5.907q-4.008 1.407-11.25 2.672-4.289.704-6.785 2.567t-2.496 4.746q0 2.812 2.285 4.429t5.871 1.618m52.032 16.172v-74.25h27.281v13.5h.14q2.04-7.524 6.329-10.512t11.953-2.988h7.031v22.5h-10.266q-6.609 0-10.476 4.359-3.867 4.36-3.867 11.812v35.579zm61.312 0V9.422h28.125v54.703h.281l18.844-24.187h31.781l-26.156 32.625 27 41.625h-31.922l-15.75-25.665-4.078 5.063v20.602zm111.094 1.828q-9.141 0-16.137-2.743t-11.004-7.98q-4.008-5.238-4.008-12.691v-.844q0-.422.071-.914h20.32q-.562 10.335 11.391 10.336 5.836 0 10.089-2.567 4.254-2.566 4.254-6.785 0-4.359-7.734-5.976l-12.586-2.461q-19.476-3.937-19.476-18.985 0-7.804 4.57-13.675t12.375-9.106 17.648-3.234q13.36 0 21.375 5.73t8.016 15.645a26.6 26.6 0 0 1-.281 3.726h-19.196q.563-4.851-2.32-7.629t-8.086-2.777q-5.766 0-9.527 2.777-3.762 2.778-3.762 6.645 0 4.43 7.172 5.976l13.641 2.743q19.406 3.937 19.406 17.789 0 8.015-4.817 14.097-4.816 6.082-13.043 9.493-8.226 3.41-18.351 3.41m69.258-.282q-11.883 0-17.719-7.628-5.836-7.63-3.516-21.692l7.735-46.476h20.672l-7.102 42.679q-1.196 7.453 1.758 11.356T612 97.875q6.398 0 11.144-4.008 4.746-4.007 6.223-12.656l6.82-41.273h20.672l-12.3 74.25h-20.395l1.968-11.672q-4.851 6.327-11.109 9.773t-14.273 3.445m113.419-75.796-2.68 16.242h-15.19l-5.76 35.086c-.42 2.531-.2 4.277.67 5.238s2.68 1.441 5.45 1.441h7.94l-2.67 16.243h-12.02c-8.21 0-13.97-1.594-17.3-4.782s-4.43-8.156-3.31-14.906l6.33-38.32h-12.86l2.67-16.242h12.86l3.38-20.25h20.67l-3.37 20.25zm25.8 32.976-6.82 41.274h-20.74l17.36-104.766h20.75l-6.89 41.484q4.56-5.976 10.44-9.246c3.91-2.179 8.45-3.269 13.6-3.269 7.92 0 13.97 2.543 18.14 7.629s5.49 12.316 3.94 21.691l-7.73 46.477h-20.68l7.11-42.68c.79-4.969.22-8.754-1.73-11.356q-2.91-3.902-9.45-3.902c-4.27 0-7.98 1.336-11.15 4.008q-4.74 4.007-6.15 12.656" style="fill:#ffffff;fill-rule:nonzero" transform="translate(1 10)scale(.15944)"/>
</svg>
