<svg xmlns="http://www.w3.org/2000/svg" xml:space="preserve" fill-rule="evenodd" stroke-linejoin="round" stroke-miterlimit="2" clip-rule="evenodd" viewBox="0 0 128 40">
  <path fill="#fff" fill-rule="nonzero" d="M1 21.368v-2.725l11.39-5.09v3.196l-7.78 3.183v.157l7.78 3.184v3.173zM22.692 10l-5.38 20H14.43l5.381-20z"/>
    <path fill="#fff" d="M23.701 28.206V16.368h4.305v2.32q.494-1.345 1.486-1.967t2.169-.622 2.124.61q.948.612 1.306 1.856.449-1.233 1.514-1.85 1.065-.616 2.32-.616 1.783 0 2.898 1.143t1.116 3.05v7.914h-4.484v-6.794q0-.807-.415-1.278-.415-.47-1.11-.47-.673 0-1.076.47-.404.471-.404 1.278v6.794h-4.26v-6.794q0-.807-.409-1.278-.41-.47-1.104-.47-.684 0-1.088.47-.403.471-.403 1.278v6.794z"/>
    <path fill="#fff" fill-rule="nonzero" d="M48.5 28.419q-1.783 0-2.91-.863-1.126-.863-1.126-2.623 0-1.323.605-2.125.605-.801 1.637-1.194 1.031-.392 2.309-.47 1.57-.102 2.22-.326t.65-.706v-.045q0-.392-.364-.622t-.981-.23q-1.357 0-1.48 1.076h-4.103q.145-2.018 1.592-3.105t4.17-1.087q2.747 0 4.176 1.087t1.43 3.105v7.915h-4.373v-1.66h-.045q-.583 1.055-1.429 1.464t-1.979.409m1.458-2.791q.728 0 1.35-.415t.623-1.2v-.941q-.64.224-1.794.426-.684.112-1.082.409t-.398.757q0 .448.365.706t.936.258m8.296 2.578V16.368h4.35v2.152h.022q.325-1.2 1.009-1.676t1.906-.476h1.12v3.587h-1.636q-1.054 0-1.67.695-.617.695-.617 1.883v5.673zm9.775 0V11.502h4.485v8.722h.044l3.005-3.856h5.067l-4.17 5.201 4.305 6.637h-5.09l-2.511-4.092-.65.807v3.285zm17.713.292q-1.457 0-2.573-.438t-1.754-1.272q-.64-.835-.64-2.024v-.134q0-.067.012-.146h3.24q-.09 1.648 1.816 1.648.93 0 1.609-.41.678-.408.678-1.08 0-.696-1.233-.954l-2.007-.392q-3.105-.628-3.105-3.027 0-1.244.728-2.18t1.973-1.452 2.814-.516q2.13 0 3.408.914t1.278 2.494a4 4 0 0 1-.044.594H88.88q.09-.773-.37-1.216t-1.29-.443q-.918 0-1.518.443t-.6 1.06q0 .706 1.144.952l2.174.437q3.095.628 3.095 2.837 0 1.278-.768 2.247-.768.97-2.08 1.514t-2.926.544m11.043-.045q-1.895 0-2.826-1.217-.93-1.216-.56-3.458l1.233-7.41h3.296l-1.132 6.804q-.19 1.189.28 1.811t1.502.622q1.02 0 1.777-.639t.992-2.018l1.088-6.58h3.296l-1.962 11.838h-3.251l.313-1.86q-.773 1.008-1.77 1.557t-2.276.55m18.083-12.085-.427 2.59h-2.422l-.918 5.593q-.1.605.106.836c.206.23.428.23.87.23h1.265l-.425 2.59h-1.917q-1.963 0-2.758-.763c-.795-.763-.707-1.3-.528-2.377l1.01-6.11h-2.051l.426-2.59h2.05l.539-3.228h3.296l-.538 3.229zm4.114 5.257-1.088 6.581h-3.307l2.768-16.704h3.309l-1.099 6.614q.727-.952 1.665-1.474.935-.52 2.168-.52 1.895 0 2.892 1.215c.997 1.215.876 1.964.629 3.459l-1.233 7.41h-3.297l1.134-6.805q.189-1.189-.276-1.81-.464-.623-1.507-.623a2.67 2.67 0 0 0-1.778.64q-.756.638-.98 2.017"/>
</svg>
