<?xml version="1.0" encoding="UTF-8"?><svg id="Layer_1" xmlns="http://www.w3.org/2000/svg" viewBox="0 0 343.89 166.03"><defs><style>.cls-1{fill:#000;stroke-width:0px;}</style></defs><path class="cls-1" d="M67.47,133.23c-.82,2.7-3.37,3.5-5.39.71-1.65-2.28-3.1-5.09-3.48-7.82-1.1-7.9-2.08-15.87-2.26-23.83-.23-10.34.35-20.7.58-31.26-.94,2.84-1.79,5.59-2.76,8.29-1.26,3.5-2.56,6.99-3.95,10.44-.54,1.34-1.26,2.63-2.09,3.81-2.98,4.26-7.56,3.98-9.43-.9-1.37-3.59-2.44-7.55-2.48-11.35-.17-17.17.07-34.34.17-51.51,0-.54.06-1.08-.3-1.76-.39.94-.81,1.88-1.16,2.83-8.32,22.46-13.78,45.7-19.05,69.01-1.96,8.66-4.61,17.17-7.07,25.71-.44,1.53-1.3,3.02-2.28,4.29-1.14,1.47-2.76,1.77-4.31.5-3.07-2.51-2.98-13.02.41-16.1-.14,2.26-.42,4.23-.32,6.19.1,1.99.57,3.95.88,5.93.33.01.65.02.98.04,1.02-3.73,2.18-7.42,3.03-11.19,3.85-17,7.35-34.09,11.47-51.02,4.28-17.57,9.85-34.77,16.79-51.5.55-1.34,1.03-2.86,2.01-3.82.92-.9,2.61-1.82,3.68-1.57,1.21.29,2.71,1.73,3.01,2.94.54,2.14.4,4.49.33,6.75-.56,18.99-1.24,37.97-1.69,56.96-.11,4.59.49,9.19.76,13.79.27.06.54.11.8.17.59-1.24,1.32-2.44,1.74-3.73,3.59-10.95,7.13-21.93,10.69-32.89.93-2.85,1.85-5.7,2.87-8.52.7-1.93,1.9-3.42,4.22-3.08,2.46.35,3.35,2.24,3.23,4.36-.33,5.89-.88,11.78-1.38,17.66-1.54,18.39-3,36.79-1.84,55.27.27,4.25.92,8.48,1.58,12.7.15,1,1.03,1.88,1.97,3.48Z"/><path class="cls-1" d="M291.02,98.99c1.46-5.5,2.8-11.04,4.42-16.49,1.52-5.13,3.3-10.18,5.05-15.24.38-1.1,1.01-2.14,1.68-3.1,2.57-3.71,6.44-3.8,8.85-.02,1.44,2.27,2.4,4.87,3.45,7.38,1.93,4.6,3.49,9.38,5.72,13.83,4.97,9.94,11.74,18.32,21.84,23.56.53.28.96.75,1.87,1.49-3.08,1.47-6.07,1.75-8.6.59-3.57-1.64-7.13-3.66-10.05-6.25-7.08-6.3-11.48-14.44-14.56-23.32-1.47-4.25-2.93-8.51-4.39-12.77-.31-.04-.61-.08-.91-.12-1.51,4.71-3.22,9.37-4.47,14.15-1.81,6.94-3.24,13.97-4.92,20.94-.4,1.66-.82,3.51-1.85,4.78-1.08,1.34-2.88,2.82-4.41,2.86-1.37.04-3.52-1.51-4.04-2.86-1.33-3.43-2.57-7.11-2.71-10.73-.42-11.42-.75-22.88-.32-34.29.59-15.88,1.85-31.74,2.95-47.6.28-4.07.98-8.11,1.56-12.15.26-1.85.67-3.86,3.16-3.59,2.37.25,2.3,2.38,2.27,4.03-.07,3.99-.43,7.98-.6,11.97-.93,22.6-1.9,45.2-2.7,67.8-.15,4.16.41,8.34.69,12.51.06.88.31,1.74.48,2.61.18.02.37.03.55.05Z"/><path class="cls-1" d="M222.84,1.18c-1.39.82-2.76,1.65-4.16,2.46-9.56,5.5-16.64,13.41-22.03,22.9-7.77,13.68-13.78,28.03-15.83,43.78-.28,2.13-.21,4.37.09,6.5.81,5.73,3.27,7.8,9.03,8.18,4.53.29,9.1.42,13.56,1.14,12.41,2,17.98,10.63,13.99,22.51-2.06,6.13-4.89,12.23-8.52,17.56-8.37,12.31-17.43,24.15-26.26,36.15-.85,1.15-1.91,2.28-3.12,3-.95.56-2.29.48-3.46.68-.15-1.11-.75-2.4-.38-3.3.99-2.42,2.17-4.82,3.65-6.96,4.72-6.79,9.73-13.37,14.4-20.19,4.87-7.11,9.63-14.32,14.11-21.68,1.77-2.9,2.98-6.24,3.89-9.54,1.53-5.54-.58-9.63-6.07-11.3-3.77-1.15-7.82-1.42-11.76-1.98-1.97-.28-3.99-.24-5.97-.5-8.17-1.1-12.5-5.89-13.03-14.19-.45-6.99.84-13.75,2.71-20.43,3.76-13.39,9.21-26.01,17.29-37.4,5.89-8.31,13.38-14.55,23.24-17.58,1.4-.43,2.91-.46,4.38-.67.08.29.16.58.24.87Z"/><path class="cls-1" d="M178.08,112.23c-4.55-.15-9.12-.33-13.69-.44-5.35-.13-9.8-1.82-12.62-7.51-1.61,3.84-3,7.21-4.43,10.55-.68,1.58-1.15,3.37-2.23,4.63-.88,1.02-2.67,2.1-3.78,1.86-1.28-.27-2.78-1.78-3.24-3.08-.68-1.91-.82-4.13-.66-6.18.81-10.23,1.45-20.49,2.8-30.65,2.63-19.71,5.69-39.36,8.6-59.04.24-1.61.69-3.19,1.01-4.8.35-1.74.97-3.27,3.13-2.95,2.13.32,2.41,2.08,2.29,3.75-.28,3.8-.68,7.6-1.16,11.38-2.96,23.24-5.96,46.48-8.93,69.73-.19,1.48-.2,2.99.23,4.61.44-.84.87-1.69,1.31-2.52,4.83-9.15,9.65-18.31,14.5-27.45.46-.87.94-1.96,1.72-2.39,1-.55,2.55-1.04,3.42-.62.86.4,1.57,1.95,1.61,3.03.04,1.17-.69,2.4-1.21,3.54-2.21,4.88-4.48,9.72-6.67,14.6-.52,1.15-.85,2.4-1.17,3.62-1.57,5.91-.12,8.32,5.79,9.59,2.57.55,5.21.85,7.74,1.53,3.54.94,5.5,3.02,5.62,5.22Z"/><path class="cls-1" d="M259.38,7.75c-.64,2.11-1.5,3.98-1.76,5.93-2,14.94-3.88,29.9-5.79,44.85-.07.51,0,1.04,0,1.89,3.84-2.1,7.41-4.06,10.97-6.01.24.33.47.66.71.99-3.44,3.15-6.77,6.43-10.37,9.37-1.56,1.28-2.33,2.52-2.46,4.5-.55,7.89-1.37,15.75-1.81,23.65-.23,4.16.05,8.35.25,12.52.06,1.29.58,2.57,1.06,4.51,9.58-7.56,15.01-17.9,23.24-26.76,0,1.98.33,3.49-.05,4.8-3.06,10.63-9.26,19.32-17.63,26.31-5.47,4.57-11.38,2.45-12.62-4.52-.97-5.4-1.34-11.06-.94-16.52,1.76-24.02,4.56-47.92,9.13-71.58.82-4.23,2.34-8.38,3.97-12.39,1.06-2.62,2.56-2.76,4.12-1.53Z"/><path class="cls-1" d="M104.91,115.9c-1.33,1.19-2.82.75-3.91-.47-1.31-1.47-2.69-3.08-3.33-4.89-1.85-5.2-3.36-10.53-4.99-15.81-.26-.86-.45-1.74-.79-3.12-.88,3.81-1.4,7.19-2.49,10.37-.93,2.7-2.16,5.45-3.91,7.67-2.7,3.41-6.97,2.69-8.79-1.28-.78-1.7-1.33-3.63-1.43-5.49-.48-8.65-.09-17.25,2.04-25.69.27-1.05.61-2.09.99-3.11,2.21-5.79,4.16-6.83,10.15-5.36.07-1.19.12-2.35.2-3.51.12-1.79.72-3.26,2.81-3.35,2.24-.1,3.03,1.46,3.24,3.3.48,4.24.74,8.5,1.26,12.74,1.38,11.26,2.79,22.53,6.56,33.32.54,1.54,1.48,2.93,2.4,4.69ZM81.46,106.13l.93.2c.86-2.09,2.16-4.12,2.49-6.3,1.33-8.86,2.39-17.77,3.46-26.67.07-.61-.66-1.89-.89-1.86-1.06.13-2.43.33-3.02,1.05-.82.99-1.17,2.44-1.48,3.75-2.09,8.81-2.53,17.77-2.17,26.78.04,1.02.45,2.03.69,3.04Z"/><path class="cls-1" d="M225,73.19c-1.32,1.85-2.58,3.81-4.03,5.61-1.75,2.18-3.85,4.13-6.91,3.51-3.2-.64-4.55-3.27-4.97-6.17-1.63-11.3.55-21.83,6.76-31.46.38-.59.94-1.26,1.56-1.47.85-.29,1.84-.17,2.77-.23-.12.8-.04,1.71-.39,2.39-4.14,7.88-6.04,16.3-6.08,25.15,0,2.01.59,4.03,1.04,6.89,1.41-1.39,2.3-2.07,2.95-2.94,4.44-5.94,6.92-12.71,8.35-19.91.07-.36.09-.72.18-1.08.47-2,.94-4.17,3.68-3.78,2.77.4,2.59,2.64,2.42,4.66-.97,11.29-.57,22.5,2.14,33.55.29,1.16,1.15,2.19,2.01,3.77-.96,1.89-2.82,2.45-4.84.38-1.41-1.45-2.68-3.31-3.27-5.22-1.35-4.4-2.24-8.94-3.37-13.66Z"/><path class="cls-1" d="M114.14,78.87c5.06-9.48,12.93-15.8,22.23-20.51.19.17.39.34.58.51-.84,1.09-1.66,2.21-2.53,3.27-3.41,4.13-6.89,8.21-10.26,12.38-5.11,6.33-7.4,13.66-7.45,21.74-.02,3.82,0,7.63.03,11.45.02,2.04-.58,3.77-2.85,3.91-2.28.15-3.09-1.5-3.28-3.53-1.06-11.3-2.21-22.59-3.15-33.9-.21-2.49.02-5.11.61-7.54.24-.99,1.94-2.23,3.03-2.28,1.91-.08,1.9,1.68,1.87,3.23-.07,3.68-.02,7.35-.02,11.03.4.08.8.16,1.2.25Z"/></svg>