<?xml version="1.0" encoding="utf-8"?>
<svg version="1.1" id="Layer_1" xmlns="http://www.w3.org/2000/svg" xmlns:xlink="http://www.w3.org/1999/xlink" x="0px" y="0px"
	 viewBox="0 0 513 513" style="enable-background:new 0 0 513 513;" xml:space="preserve">
<style type="text/css">
	.st0{fill:#214154;}
	.st1{fill:#FFFFFF;}
	.st2{fill:none;}
</style>
<rect x="0.5" y="0.5" class="st0" width="512" height="512"/>
<g>
	<polygon class="st1" points="169.6,160.2 151.3,205 150.4,205 132,160.2 110.4,160.2 110.4,232.5 127.4,232.5 127.4,187.8
		128,187.8 145.4,232.1 156.3,232.1 173.7,188.1 174.3,188.1 174.3,232.5 191.3,232.5 191.3,160.2 	"/>
	<g>
		<polygon class="st2" points="234.9,178.4 226.8,204.1 243.5,204.1 235.4,178.4 		"/>
		<path class="st1" d="M252.4,232.5h18.8l-24.4-72.4h-23.3l-24.4,72.4h18.8l4.8-15.2h25L252.4,232.5z M226.8,204.1l8-25.6h0.6
			l8.1,25.6H226.8L226.8,204.1z"/>
	</g>
	<g>
		<path class="st2" d="M311.7,192.9c1.8-0.7,3.1-1.8,4-3.2c0.9-1.4,1.4-3.3,1.4-5.5c0-2.2-0.5-4.1-1.4-5.6c-0.9-1.5-2.3-2.6-4.1-3.3
			s-4-1.1-6.6-1.1h-8.6V194h8.6C307.8,194,310,193.6,311.7,192.9L311.7,192.9z"/>
		<path class="st1" d="M318.7,232.5h19.1l-15-27.5c4-1.8,7.1-4.5,9.2-7.9c2.2-3.5,3.3-7.8,3.3-12.8c0-5-1.1-9.2-3.2-12.8
			c-2.1-3.6-5.2-6.4-9.1-8.3s-8.6-2.9-14-2.9H279v72.4h17.5v-24.8h9L318.7,232.5L318.7,232.5z M296.5,174.3h8.6
			c2.6,0,4.8,0.4,6.6,1.1c1.8,0.7,3.1,1.8,4.1,3.3c0.9,1.5,1.4,3.3,1.4,5.6c0,2.2-0.5,4.1-1.4,5.5c-0.9,1.4-2.3,2.5-4,3.2
			c-1.8,0.7-4,1-6.6,1h-8.6L296.5,174.3L296.5,174.3z"/>
	</g>
	<polygon class="st1" points="382.2,192.5 407.8,160.2 387.2,160.2 363.3,190.8 362.4,190.8 362.4,160.2 344.9,160.2 344.9,232.5
		362.4,232.5 362.4,212.9 369.3,204.1 387.4,232.5 408.3,232.5 	"/>
	<path class="st1" d="M165.7,323.1c-1-2.3-2.4-4.4-4.3-6.2s-4.2-3.3-6.9-4.6c-2.7-1.3-5.9-2.3-9.5-3.1l-6.2-1.4
		c-1.6-0.4-3.1-0.8-4.5-1.2c-1.3-0.5-2.4-1-3.4-1.6c-0.9-0.6-1.6-1.3-2.1-2.2c-0.5-0.8-0.7-1.8-0.7-2.9c0-1.3,0.4-2.5,1.2-3.5
		c0.8-1,1.9-1.8,3.4-2.4c1.5-0.6,3.4-0.9,5.7-0.9c3.4,0,6,0.7,7.9,2.2c1.8,1.4,2.9,3.5,3.1,6.1h16.7c0-4.5-1.2-8.5-3.5-11.9
		s-5.5-6.1-9.6-8c-4.1-1.9-9-2.8-14.6-2.8s-10.4,0.9-14.7,2.8c-4.3,1.9-7.6,4.5-10.1,7.9c-2.4,3.4-3.6,7.3-3.6,11.8
		c0,5.5,1.8,9.8,5.4,13.1c3.6,3.2,8.5,5.5,14.8,7l7.6,1.8c2.6,0.6,4.8,1.3,6.5,2c1.7,0.7,3,1.6,3.8,2.5s1.3,2.1,1.3,3.5
		c0,1.5-0.5,2.8-1.4,3.9c-0.9,1.1-2.2,2-3.8,2.7c-1.7,0.6-3.7,1-6,1c-2.6,0-4.8-0.4-6.8-1.2c-1.9-0.8-3.5-2-4.6-3.5
		c-1.1-1.6-1.7-3.5-1.9-5.8h-16.7c0.1,5.7,1.4,10.3,3.8,14c2.5,3.7,6,6.5,10.5,8.3c4.5,1.8,9.8,2.7,15.8,2.7
		c6.1,0,11.2-0.9,15.5-2.6c4.3-1.7,7.6-4.3,9.8-7.5c2.3-3.3,3.4-7.2,3.5-11.8C167.2,328,166.7,325.4,165.7,323.1L165.7,323.1z"/>
	<path class="st1" d="M219.9,279.6v45.2c0,2.5-0.6,4.7-1.7,6.7c-1.1,2-2.6,3.5-4.6,4.6c-2,1.1-4.3,1.7-6.9,1.7s-4.9-0.6-6.9-1.7
		c-2-1.1-3.5-2.6-4.6-4.6c-1.1-2-1.6-4.2-1.6-6.7v-45.2h-17.5v46.7c0,5.4,1.3,10.1,3.8,14.1c2.5,4,6.1,7.1,10.7,9.3
		c4.6,2.2,10,3.3,16.1,3.3s11.4-1.1,16-3.3c4.6-2.2,8.2-5.3,10.7-9.3c2.6-4,3.8-8.7,3.8-14.1v-46.7L219.9,279.6L219.9,279.6z"/>
	<polygon class="st1" points="245.9,279.6 245.9,293.8 267.9,293.8 267.9,351.9 285.1,351.9 285.1,293.8 307.1,293.8 307.1,279.6
		"/>
	<polygon class="st1" points="361.7,279.6 361.7,308.6 333.1,308.6 333.1,279.6 315.6,279.6 315.6,351.9 333.1,351.9 333.1,322.8
		361.7,322.8 361.7,351.9 379.1,351.9 379.1,279.6 	"/>
</g>
</svg>
