<?xml version="1.0" encoding="utf-8"?>
<svg version="1.1" id="Layer_1" xmlns="http://www.w3.org/2000/svg" xmlns:xlink="http://www.w3.org/1999/xlink" x="0px" y="0px"
	 viewBox="0 0 512 512" style="enable-background:new 0 0 512 512;" xml:space="preserve">
<style type="text/css">
	.st0{fill:#214154;}
	.st1{fill:#FFFFFF;}
</style>
<rect class="st0" width="512" height="512"/>
<g>
	<path class="st1" d="M295.1,263.8c0,21.6-17.5,39.1-39.1,39.1s-39.1-17.5-39.1-39.1s17.5-39.1,39.1-39.1S295.1,242.2,295.1,263.8z"
		/>
	<path class="st1" d="M162.2,193.5c-17.3,0-31.2,14-31.2,31.2v93.8c0,17.3,14,31.2,31.2,31.2h187.5c17.3,0,31.2-14,31.2-31.2v-93.8
		c0-17.3-14-31.2-31.2-31.2h-18.3c-8.3,0-16.2-3.3-22.1-9.2l-12.9-12.9c-5.9-5.9-13.8-9.2-22.1-9.2h-36.6c-8.3,0-16.2,3.3-22.1,9.2
		l-12.9,12.9c-5.9,5.9-13.8,9.2-22.1,9.2H162.2L162.2,193.5z M170.1,224.7c-4.3,0-7.8-3.5-7.8-7.8s3.5-7.8,7.8-7.8
		c4.3,0,7.8,3.5,7.8,7.8S174.4,224.7,170.1,224.7z M310.7,263.8c0,30.2-24.5,54.7-54.7,54.7c-30.2,0-54.7-24.5-54.7-54.7
		c0-30.2,24.5-54.7,54.7-54.7C286.2,209.1,310.7,233.6,310.7,263.8z"/>
</g>
</svg>
