<svg xmlns="http://www.w3.org/2000/svg" version="1.1" xmlns:xlink="http://www.w3.org/1999/xlink" width="750" height="358"><svg xmlns="http://www.w3.org/2000/svg" xml:space="preserve" fill-rule="evenodd" stroke-linejoin="round" stroke-miterlimit="2" clip-rule="evenodd" viewBox="0 0 750 358"><path fill="#214154" fill-rule="nonzero" d="M.002 203.29v-48.718L203.69 63.553v57.137L64.555 177.628v2.805l139.135 56.938v56.735L.002 203.289ZM387.932 0 291.7 357.66h-51.523L336.408 0h51.524Z"></path><path fill="#214154" d="M405.975 325.584V113.875h76.984v41.498c5.883-16.039 14.736-27.766 26.566-35.185 11.827-7.416 24.758-11.126 38.792-11.126 14.034 0 26.7 3.641 37.993 10.926 11.291 7.285 19.078 18.346 23.355 33.18 5.346-14.7 14.368-25.73 27.064-33.08 12.697-7.35 26.532-11.026 41.501-11.026 21.25 0 38.527 6.818 51.825 20.45 13.298 13.632 19.948 31.809 19.948 54.53v141.542H669.81V204.09c0-9.623-2.472-17.242-7.419-22.853-4.944-5.614-11.562-8.423-19.848-8.423-8.018 0-14.433 2.809-19.246 8.423-4.81 5.611-7.217 13.23-7.217 22.853v121.494h-76.183V204.09c0-9.623-2.438-17.242-7.317-22.853-4.878-5.614-11.462-8.423-19.748-8.423-8.152 0-14.635 2.809-19.445 8.423-4.813 5.611-7.22 13.23-7.22 22.853v121.494h-80.192Z"></path></svg><style>@media (prefers-color-scheme: light) { :root { filter: none; } }
@media (prefers-color-scheme: dark) { :root { filter: none; } }
</style></svg>